<?xml version="1.0" encoding="UTF-8" standalone="no"?>
<!-- Created with Inkscape (http://www.inkscape.org/) -->

<svg
   xmlns:dc="http://purl.org/dc/elements/1.1/"
   xmlns:cc="http://creativecommons.org/ns#"
   xmlns:rdf="http://www.w3.org/1999/02/22-rdf-syntax-ns#"
   xmlns:svg="http://www.w3.org/2000/svg"
   xmlns="http://www.w3.org/2000/svg"
   xmlns:sodipodi="http://sodipodi.sourceforge.net/DTD/sodipodi-0.dtd"
   xmlns:inkscape="http://www.inkscape.org/namespaces/inkscape"
   width="195"
   height="36"
   viewBox="0 0 51.593749 9.5250003"
   version="1.1"
   id="svg1413"
   inkscape:version="0.92.4 5da689c313, 2019-01-14"
   sodipodi:docname="logo_bdp.svg">
  <defs
     id="defs1407">
    <clipPath
       id="clipPath20"
       clipPathUnits="userSpaceOnUse">
      <path
         inkscape:connector-curvature="0"
         id="path18"
         d="M 0,595.28 H 841.89 V 0 H 0 Z" />
    </clipPath>
    <clipPath
       id="clipPath20-3"
       clipPathUnits="userSpaceOnUse">
      <path
         inkscape:connector-curvature="0"
         id="path18-6"
         d="M 0,595.28 H 841.89 V 0 H 0 Z" />
    </clipPath>
    <clipPath
       id="clipPath20-7"
       clipPathUnits="userSpaceOnUse">
      <path
         inkscape:connector-curvature="0"
         id="path18-5"
         d="M 0,595.28 H 841.89 V 0 H 0 Z" />
    </clipPath>
  </defs>
  <sodipodi:namedview
     id="base"
     pagecolor="#005EB8"
     bordercolor="#666666"
     borderopacity="1.0"
     inkscape:pageopacity="0.0"
     inkscape:pageshadow="2"
     inkscape:zoom="1.4"
     inkscape:cx="398.11628"
     inkscape:cy="17.142857"
     inkscape:document-units="mm"
     inkscape:current-layer="layer1"
     showgrid="false"
     units="px"
     inkscape:window-width="1366"
     inkscape:window-height="731"
     inkscape:window-x="0"
     inkscape:window-y="312"
     inkscape:window-maximized="1" />
  <metadata
     id="metadata1410">
    <rdf:RDF>
      <cc:Work
         rdf:about="">
        <dc:format>image/svg+xml</dc:format>
        <dc:type
           rdf:resource="http://purl.org/dc/dcmitype/StillImage" />
        <dc:title></dc:title>
      </cc:Work>
    </rdf:RDF>
  </metadata>
  <g
     inkscape:label="Layer 1"
     inkscape:groupmode="layer"
     id="layer1"
     transform="translate(0,-287.47498)">
    <g
       transform="matrix(0.08741996,0,0,-0.08742005,-11.021421,318.44031)"
       inkscape:label="AF_BDP_VP_COLOR_SCREEN_NEG"
       id="g10">
      <g
         id="g14">
        <g
           clip-path="url(#clipPath20-3)"
           id="g16">
          <g
             transform="translate(594.4072,282.0635)"
             id="g22">
            <path
               inkscape:connector-curvature="0"
               id="path24"
               style="fill:#005EB8;fill-opacity:1;fill-rule:nonzero;stroke:none"
               d="m 0,0 c -6.245,0 -8.923,3.377 -8.923,10.073 0,6.056 2.168,9.498 8.416,9.498 3.123,0 5.353,-0.766 7.072,-1.527 l 1.084,6.627 c -1.91,0.829 -4.842,1.531 -8.285,1.531 -10.264,0 -15.363,-6.757 -15.363,-16.513 0,-10.707 6.119,-16.318 15.618,-16.318 3.188,0 5.992,0.641 8.67,1.467 L 7.206,1.402 C 4.975,0.572 2.425,0 0,0 m -27.846,0 c -1.657,-0.445 -4.013,-0.637 -5.863,-0.637 -3.378,0 -5.735,0.575 -5.735,4.207 0,3.06 1.782,4.272 5.798,4.272 h 5.8 z m -6.309,26.202 c -3.888,0 -7.394,-0.702 -10.073,-1.466 l 1.021,-6.376 c 1.978,0.763 4.973,1.467 8.732,1.467 4.144,0 6.629,-1.083 6.629,-4.272 v -2.359 h -5.734 c -7.779,0 -12.879,-2.613 -12.879,-9.881 0,-6.821 4.4,-9.944 13.003,-9.944 4.209,0 9.245,0.766 12.56,1.977 v 19.443 c 0,8.478 -5.609,11.411 -13.259,11.411 M -64.87,14.919 h -8.35 V 28.37 h 8.35 c 6.314,0 8.35,-2.424 8.35,-6.759 0,-4.333 -2.036,-6.692 -8.35,-6.692 m 0,20.206 H -80.424 V -5.926 h 7.204 v 14.09 h 8.35 c 11.22,0 15.619,5.416 15.619,13.447 0,8.033 -4.336,13.514 -15.619,13.514 M -157.694,0.638 C -159.226,0.191 -161.009,0 -162.731,0 c -6.057,0 -8.288,2.871 -8.288,9.818 0,6.311 1.594,9.753 8.034,9.753 2.548,0 4.399,-0.51 5.291,-0.958 z m 0,24.672 c -1.659,0.636 -3.763,0.892 -5.801,0.892 -9.435,0 -14.599,-6.567 -14.599,-16.065 0,-10.582 4.907,-16.766 15.618,-16.766 2.358,0 7.905,0.318 11.793,1.977 v 42.965 h -7.011 z m 32.959,-12.369 h -13.579 v 0.318 c 0,4.718 2.485,6.822 6.692,6.822 4.336,0 6.887,-2.295 6.887,-6.822 z m -6.696,13.261 c -10.518,0 -14.088,-7.331 -14.088,-16.513 0,-11.154 5.227,-16.318 15.809,-16.318 3.635,0 7.651,0.641 10.647,1.977 l -1.084,6.629 C -122.316,0.956 -126.329,0 -129.646,0 c -5.799,0 -8.668,2.615 -8.668,6.885 v 0.32 h 19.633 c 0.512,1.594 0.637,3.826 0.637,4.971 0,9.243 -4.653,14.026 -13.387,14.026 m 28.448,-26.073 c -1.723,0 -2.614,1.019 -2.614,4.653 v 33.531 h -7.013 V 3.315 c 0,-7.073 3.824,-9.817 8.861,-9.817 1.656,0 2.995,0.256 3.952,0.639 l -1.02,6.435 c -0.575,-0.25 -1.464,-0.443 -2.166,-0.443 M -212.192,0 c -6.183,0 -7.586,3.825 -7.586,9.818 0,5.994 1.403,9.753 7.586,9.753 6.245,0 7.587,-3.759 7.587,-9.753 0,-5.993 -1.342,-9.818 -7.587,-9.818 m 0,26.202 c -9.817,0 -14.661,-6.439 -14.661,-16.384 0,-10.39 4.399,-16.447 14.661,-16.447 9.881,0 14.599,6.502 14.599,16.447 0,10.326 -4.334,16.384 -14.599,16.384 M 102.49,0 c -6.183,0 -7.586,3.825 -7.586,9.818 0,5.994 1.403,9.753 7.586,9.753 6.249,0 7.586,-3.759 7.586,-9.753 C 110.076,3.825 108.739,0 102.49,0 m 0,26.202 c -9.816,0 -14.662,-6.439 -14.662,-16.384 0,-10.39 4.399,-16.447 14.662,-16.447 9.883,0 14.599,6.502 14.599,16.447 0,10.326 -4.336,16.384 -14.599,16.384 M 76.971,0 c -6.247,0 -8.925,3.377 -8.925,10.073 0,6.056 2.167,9.498 8.414,9.498 3.127,0 5.355,-0.766 7.077,-1.527 l 1.084,6.627 c -1.914,0.829 -4.847,1.531 -8.288,1.531 -10.265,0 -15.363,-6.757 -15.363,-16.513 0,-10.707 6.118,-16.318 15.619,-16.318 3.185,0 5.991,0.641 8.669,1.467 L 84.175,1.402 C 81.942,0.572 79.394,0 76.971,0 M 48.88,-5.926 h 7.01 V 25.563 H 48.88 Z M 13.123,29.579 h 5.356 l 6.5,8.671 h -6.821 z m 39.263,10.136 c -2.359,0 -4.27,-1.913 -4.27,-4.271 0,-2.357 1.911,-4.27 4.27,-4.27 2.359,0 4.269,1.974 4.269,4.27 0,2.295 -1.91,4.271 -4.269,4.271 M 12.741,-5.926 h 7.011 V 25.563 H 12.741 Z M 26.464,28.177 V -5.926 h 7.013 v 24.86 h 10.836 v 6.629 H 33.477 v 3.123 c 0,3.762 2.038,4.909 5.162,4.909 2.423,0 4.336,-0.382 5.864,-0.954 l 1.019,6.564 c -2.04,0.638 -4.526,1.02 -7.329,1.02 -6.756,0 -11.729,-2.677 -11.729,-12.048 m -298.397,-1.975 c -4.718,0 -10.583,-0.702 -14.025,-2.043 V -5.926 h 7.014 v 24.731 c 1.658,0.449 4.016,0.766 6.884,0.766 3.889,0 6.503,-1.275 6.503,-5.991 V -5.926 h 6.947 V 13.77 c 0,8.924 -4.908,12.432 -13.323,12.432 M -237.711,0 c -6.249,0 -8.923,3.377 -8.923,10.073 0,6.056 2.164,9.498 8.413,9.498 3.122,0 5.355,-0.766 7.076,-1.527 l 1.083,6.627 c -1.913,0.829 -4.845,1.531 -8.286,1.531 -10.264,0 -15.363,-6.757 -15.363,-16.513 0,-10.707 6.118,-16.318 15.617,-16.318 3.187,0 5.993,0.641 8.669,1.467 l -1.083,6.564 C -232.739,0.572 -235.29,0 -237.711,0 m -61.476,0 c -1.656,-0.445 -4.016,-0.637 -5.866,-0.637 -3.377,0 -5.734,0.575 -5.734,4.207 0,3.06 1.784,4.272 5.8,4.272 h 5.8 z m -6.31,26.202 c -3.888,0 -7.396,-0.702 -10.072,-1.466 l 1.019,-6.376 c 1.978,0.763 4.973,1.467 8.733,1.467 4.145,0 6.63,-1.083 6.63,-4.272 v -2.359 h -5.736 c -7.779,0 -12.878,-2.613 -12.878,-9.881 0,-6.821 4.399,-9.944 13.004,-9.944 4.208,0 9.245,0.766 12.558,1.977 v 19.443 c 0,8.478 -5.607,11.411 -13.258,11.411 m -31.817,-25.37 h -8.605 v 11.09 h 8.605 c 5.865,0 7.779,-2.359 7.779,-5.61 0,-3.316 -1.978,-5.48 -7.779,-5.48 m -8.605,27.538 h 7.839 c 5.42,0 7.269,-2.104 7.269,-5.038 0,-2.869 -1.849,-5.165 -7.269,-5.165 h -7.839 z m 17.018,-13.005 c 3.764,1.913 5.42,4.589 5.42,8.67 0,6.566 -4.017,11.09 -14.599,11.09 h -15.044 V -5.926 h 15.81 c 10.392,0 15.107,5.672 15.107,12.112 0,4.079 -1.976,7.267 -6.694,9.179 m -81.441,21.678 c -4.935,0 -8.948,-4.014 -8.948,-8.946 v -8.942 h 8.948 c 4.932,0 8.945,4.01 8.945,8.942 0,4.932 -4.013,8.946 -8.945,8.946 M -444.335,3.054 c 0,-4.933 4.011,-8.945 8.943,-8.945 4.934,0 8.947,4.012 8.947,8.945 v 8.944 h -8.947 c -4.932,0 -8.943,-4.012 -8.943,-8.944 m 33.99,8.944 h -8.945 V 3.051 c 0,-4.932 4.013,-8.942 8.945,-8.942 4.933,0 8.948,4.01 8.948,8.942 0,4.933 -4.015,8.947 -8.948,8.947 m 16.101,-8.947 c 0,-8.873 -7.222,-16.1 -16.101,-16.1 -5.056,0 -9.57,2.348 -12.522,6.002 -2.955,-3.654 -7.468,-6.002 -12.525,-6.002 -8.877,0 -16.1,7.227 -16.1,16.103 0,8.876 7.223,16.101 16.1,16.101 h 8.947 v 8.942 c 0,8.88 7.223,16.103 16.103,16.103 8.876,0 16.098,-7.223 16.098,-16.103 0,-5.055 -2.347,-9.568 -6.002,-12.523 3.655,-2.953 6.002,-7.469 6.002,-12.523 m -16.1,53.669 h -53.67 V 3.051 c 0,-15.805 12.814,-28.617 28.621,-28.617 h 53.669 v 53.667 c 0,15.804 -12.813,28.619 -28.62,28.619" />
          </g>
        </g>
      </g>
    </g>
  </g>
</svg>
